<?xml version="1.0" encoding="UTF-8"?>
<!DOCTYPE svg PUBLIC "-//W3C//DTD SVG 1.1//EN" "http://www.w3.org/Graphics/SVG/1.1/DTD/svg11.dtd">
<!-- Creator: CorelDRAW 2020 (64-Bit) -->
<svg xmlns="http://www.w3.org/2000/svg" xml:space="preserve" width="328" height="328" version="1.1" style="shape-rendering:geometricPrecision; text-rendering:geometricPrecision; image-rendering:optimizeQuality; fill-rule:evenodd; clip-rule:evenodd"
viewBox="0 0 30000 30000"
 xmlns:xlink="http://www.w3.org/1999/xlink"
 xmlns:xodm="http://www.corel.com/coreldraw/odm/2003">
 <defs>
  <style type="text/css">
   <![CDATA[
    .fil11 {fill:#009933}
    .fil0 {fill:#00A0E3}
    .fil12 {fill:#00CCFF}
    .fil5 {fill:#175CF1}
    .fil4 {fill:#17EAF1}
    .fil8 {fill:#17F14D}
    .fil1 {fill:#3763AB}
    .fil6 {fill:#D017F1}
    .fil7 {fill:#F1176E}
    .fil3 {fill:#F18C16}
    .fil10 {fill:#FF6600}
    .fil9 {fill:#FFCC00}
    .fil2 {fill:#FFD100}
   ]]>
  </style>
 </defs>
 <g id="Слой_x0020_1">
  <metadata id="CorelCorpID_0Corel-Layer"/>
  <g id="_2967967810240">
   <g>
    <polygon class="fil0" points="6699.73,14975.6 10403.9,18485.74 10403.9,11465.46 "/>
    <polygon class="fil0" points="2995.56,18485.74 6699.73,14975.6 2995.56,11465.46 "/>
    <polygon class="fil1" points="2995.56,11465.46 6699.73,14975.6 10403.9,11465.46 "/>
   </g>
   <g>
    <polygon class="fil2" points="19590.24,11465.46 23493.51,15164.28 26998.58,11465.46 "/>
    <polygon class="fil3" points="23493.51,15164.28 19590.24,11465.46 19590.24,14188.21 19590.24,18485.74 23294.41,18485.74 26998.58,18485.74 "/>
   </g>
   <g>
    <polygon class="fil4" points="23294.41,19374.74 19590.24,19374.74 19590.24,22884.88 23294.41,22884.88 26998.58,21130.95 "/>
    <polygon class="fil5" points="23294.41,22884.88 19590.24,22884.88 19590.24,26395.02 23294.41,26395.02 26998.58,24638.81 "/>
   </g>
   <g>
    <polygon class="fil6" points="13825.88,18485.74 13825.88,14188.21 11292.9,14188.21 11292.9,18485.74 "/>
    <polygon class="fil6" points="16168.25,14188.21 16168.25,18485.74 18701.24,18485.74 18701.24,14188.21 "/>
    <polygon class="fil7" points="13825.88,14188.21 16168.25,14188.21 18701.24,14188.21 18701.24,11465.46 11292.9,11465.46 11292.9,14188.21 "/>
   </g>
   <polygon class="fil8" points="10403.9,19374.74 2995.56,19374.74 2995.56,21846.88 5511.16,21846.88 5511.16,26395.02 7888.3,26395.02 7888.3,21846.88 10403.9,21846.88 "/>
   <g>
    <polygon class="fil9" points="13825.88,26395.02 13825.88,22097.49 11292.9,22097.49 11292.9,26395.02 "/>
    <polygon class="fil9" points="16168.25,22097.49 16168.25,26395.02 18701.24,26395.02 18701.24,22097.49 "/>
    <polygon class="fil10" points="13825.88,22097.49 16168.25,22097.49 18701.24,22097.49 18701.24,19374.74 11292.9,19374.74 11292.9,22097.49 "/>
   </g>
   <g>
    <polygon class="fil11" points="13797.58,3386.84 13797.58,10407.12 16330.57,10407.12 16330.57,3386.84 "/>
    <polygon class="fil12" points="11165.45,5253.02 12481.51,4319.93 13797.58,3386.84 13797.58,5253.02 13797.58,7119.2 12481.51,6186.11 "/>
   </g>
  </g>
 </g>
</svg>
